:SAMPLES-PER-SECOND 30
:FULLY-SPECIFIED
:DEGREES
343
root  43.0259 37.0964 -29.5352 -142.861 78.8323 -173.664
RightUpLeg  -62.9802 -14.8712 11.2781
RightLeg  31.8734 -2.31356 -1.79758
RightFoot  2.11014 0.628201 -5.19946
RightToes  0.000482159 0.542163 -0.142577
Spine  70.664 -3.90658 6.09482
Spine1  7.30628 1.60122 -5.52516
HEad  -39.1389 -4.85711 -1.42233
LeftShoulder1  4.86624 -23.1312 -10.9688
LeftArm  -72.3897 -58.3415 5.83264
LeftForeArm  -0.281393 -33.3242 -7.4167
LeftHand  -0.25398 0.0180481 5.50724
RightShoulder  3.07483 12.2183 12.5329
RightArm  -53.6301 40.1128 4.18918
RightForeArm  -28.1143 50.0571 15.2401
RightHand  0.0354832 -0.49148 0.935372
LeftUpLeg  -65.1608 16.8274 -15.3758
LeftLeg  32.1465 -1.5734 -0.710258
LeftFoot  2.56451 -1.13858 9.19404
LeftToes  1.06247e-005 4.65855e-005 -8.18501e-006
344
root  42.6867 37.3259 -29.1768 -148.807 77.5064 -176.637
RightUpLeg  -59.2186 -14.9062 9.34998
RightLeg  30.8044 -3.31288 -2.37454
RightFoot  2.39975 0.52134 -4.18391
RightToes  0.000482159 0.542163 -0.142577
Spine  69.1704 -3.6141 5.56411
Spine1  8.24332 1.30393 -5.01268
HEad  -38.3211 -4.77379 -2.56428
LeftShoulder1  5.19279 -22.9132 -12.4995
LeftArm  -61.7708 -56.8506 -3.67609
LeftForeArm  -0.62412 -35.665 -8.09102
LeftHand  -0.25398 0.0180481 5.50724
RightShoulder  3.11072 11.831 13.3378
RightArm  -48.7761 37.2592 9.57162
RightForeArm  -27.3652 53.985 17.4995
RightHand  -0.0255607 -2.14097 -0.337522
LeftUpLeg  -61.1213 17.4309 -14.9159
LeftLeg  29.3481 -3.20633 -1.60524
LeftFoot  4.21331 -1.19832 8.56513
LeftToes  1.06247e-005 4.65855e-005 -8.18501e-006
345
root  42.3677 37.5415 -28.7226 -153.838 75.9307 -178.575
RightUpLeg  -55.0772 -13.6334 6.52655
RightLeg  29.9821 -3.70374 -2.55174
RightFoot  2.33557 0.377176 -3.01587
RightToes  0.000482159 0.542163 -0.142577
Spine  67.5012 -3.2955 4.95704
Spine1  9.31829 1.05614 -4.56775
HEad  -37.4401 -4.36482 -3.90425
LeftShoulder1  5.62873 -22.6356 -14.5585
LeftArm  -52.1379 -53.9556 -11.996
LeftForeArm  -0.419184 -38.111 -8.81368
LeftHand  -0.25398 0.0180481 5.50724
RightShoulder  3.26939 11.6181 14.8049
RightArm  -44.4903 34.4137 13.8152
RightForeArm  -25.4871 57.7087 20.0882
RightHand  -0.0476517 -3.67095 -1.43542
LeftUpLeg  -57.0997 18.2267 -14.3134
LeftLeg  26.7003 -5.01421 -2.4006
LeftFoot  5.82567 -1.28367 8.25074
LeftToes  1.06247e-005 4.65855e-005 -8.18501e-006
346
root  42.079 37.7503 -28.1855 -157.934 74.1274 -179.511
RightUpLeg  -50.6008 -10.2195 2.52312
RightLeg  29.4323 -1.8342 -1.35965
RightFoot  2.00932 0.159995 -1.24269
RightToes  0.000482159 0.542163 -0.142577
Spine  65.8815 -2.95809 4.47229
Spine1  10.0045 0.915092 -4.02699
HEad  -36.1687 -3.82088 -5.88947
LeftShoulder1  6.2514 -22.3609 -17.4221
LeftArm  -43.8822 -49.6491 -18.7936
LeftForeArm  0.00143477 -41.023 -9.74062
LeftHand  -0.25398 0.0180481 5.50724
RightShoulder  3.51774 11.4737 16.8444
RightArm  -40.5167 31.3854 16.8571
RightForeArm  -22.5707 61.2835 23.1771
RightHand  -0.037056 -5.58245 -1.74198
LeftUpLeg  -52.9607 18.9997 -13.3559
LeftLeg  23.903 -6.8147 -2.96356
LeftFoot  7.72562 -1.34434 7.71871
LeftToes  1.06247e-005 4.65855e-005 -8.18501e-006
347
root  41.8269 37.9214 -27.5795 -161.773 71.9988 179.862
RightUpLeg  -46.0973 -4.71087 -2.20384
RightLeg  29.8576 2.27535 1.18938
RightFoot  0.270021 -0.133319 1.38657
RightToes  0.000482159 0.542163 -0.142577
Spine  64.4805 -2.66099 4.09836
Spine1  10.1346 0.735869 -3.14312
HEad  -34.5134 -2.87013 -8.75568
LeftShoulder1  7.16989 -22.0857 -21.548
LeftArm  -37.1813 -44.0277 -23.2432
LeftForeArm  0.00313844 -44.4956 -11.0068
LeftHand  -0.25398 0.0180481 5.50724
RightShoulder  3.7901 11.2892 19.1555
RightArm  -36.6266 28.3031 18.7867
RightForeArm  -19.2718 64.7496 27.0777
RightHand  -0.0167685 -8.06145 -1.68155
LeftUpLeg  -48.6763 19.3155 -12.0321
LeftLeg  21.0458 -8.72996 -3.3381
LeftFoot  9.95639 -1.29841 6.5755
LeftToes  1.06247e-005 4.65855e-005 -8.18501e-006
